<svg xmlns="http://www.w3.org/2000/svg" version="1.1" xmlns:xlink="http://www.w3.org/1999/xlink" xmlns:svgjs="http://svgjs.dev/svgjs" width="1000" height="351" viewBox="0 0 1000 351"><g transform="matrix(1,0,0,1,-0.6060606060606233,0.30571937635602353)"><svg viewBox="0 0 396 139" data-background-color="#ffffff" preserveAspectRatio="xMidYMid meet" height="351" width="1000" xmlns="http://www.w3.org/2000/svg" xmlns:xlink="http://www.w3.org/1999/xlink"><g id="tight-bounds" transform="matrix(1,0,0,1,0.2400000000000091,-0.12106835701848695)"><svg viewBox="0 0 395.52 139.24213671403697" height="139.24213671403697" width="395.52"><g><svg viewBox="0 0 641.8632181159113 225.96684356949703" height="139.24213671403697" width="395.52"><g transform="matrix(1,0,0,1,246.3432181159113,69.82703454840454)"><svg viewBox="0 0 395.52000000000004 86.31277447268795" height="86.31277447268795" width="395.52000000000004"><g id="textblocktransform"><svg viewBox="0 0 395.52000000000004 86.31277447268795" height="86.31277447268795" width="395.52000000000004" id="textblock"><g><svg viewBox="0 0 395.52000000000004 86.31277447268795" height="86.31277447268795" width="395.52000000000004"><g transform="matrix(1,0,0,1,0,0)"><svg width="395.52000000000004" viewBox="1.7 -36 184.88000000000002 40.35" height="86.31277447268795" data-palette-color="#e363aa"><path d="M5.85 4.35L5.85 4.35Q4.35 4.35 3.03 3.55 1.7 2.75 1.7 1.5L1.7 1.5Q1.7 0.85 1.93 0.1 2.15-0.65 2.35-1.3L2.35-1.3Q3.9-6.05 5.25-10.18 6.6-14.3 7.98-18.13 9.35-21.95 10.88-25.8 12.4-29.65 14.3-33.85L14.3-33.85Q12.4-33.45 11.05-32.83 9.7-32.2 8.85-31.73 8-31.25 7.6-31.25L7.6-31.25Q7.35-31.25 6.88-31.6 6.4-31.95 6.05-32.4 5.7-32.85 5.7-33.2L5.7-33.2Q7.1-33.8 8.97-34.45 10.85-35.1 13.05-35.55 15.25-36 17.45-36L17.45-36Q19.8-36 22.25-35.38 24.7-34.75 26.78-33.52 28.85-32.3 30.13-30.48 31.4-28.65 31.4-26.2L31.4-26.2Q31.4-23.55 30.2-21.65 29-19.75 27.03-18.45 25.05-17.15 22.75-16.35 20.45-15.55 18.18-15.15 15.9-14.75 14.1-14.6 12.3-14.45 11.4-14.45L11.4-14.45 11.1-14.45Q9.7-9.5 8.35-4.58 7 0.35 5.85 4.35ZM11.55-16L11.55-16Q14.35-16.2 17.15-16.95 19.95-17.7 22.23-19.03 24.5-20.35 25.88-22.35 27.25-24.35 27.25-27L27.25-27Q27.25-29.5 25.93-31.05 24.6-32.6 22.53-33.4 20.45-34.2 18.15-34.25L18.15-34.25Q16.35-30.75 14.7-25.98 13.05-21.2 11.55-16ZM36.2 1.3L36.2 1.3Q34.35 1.3 33.2 0.33 32.05-0.65 32.05-2.3L32.05-2.3Q32.05-3.7 32.75-5.3 33.45-6.9 34.17-8.45 34.9-10 34.9-11.2L34.9-11.2Q34.9-12.35 34.15-13.13 33.4-13.9 32.4-14.4L32.4-14.4Q31.3-11.65 29.92-9.08 28.55-6.5 27.7-5.05L27.7-5.05 26.95-6.5Q27.65-7.8 28.8-10.2 29.95-12.6 31-15.55L31-15.55Q30.5-16.05 30.5-16.9L30.5-16.9Q30.5-18.2 31.3-19.35 32.1-20.5 32.85-20.5L32.85-20.5Q33.45-20.5 33.72-19.83 34-19.15 34-18.9L34-18.9Q34-18.65 33.77-18 33.55-17.35 33.45-17.05L33.45-17.05Q33.5-16.5 34.32-15.98 35.15-15.45 36.2-14.75 37.25-14.05 38.05-13 38.85-11.95 38.85-10.35L38.85-10.35Q38.85-8.9 38.2-7.4 37.55-5.9 36.9-4.6 36.25-3.3 36.25-2.35L36.25-2.35Q36.25-1.65 36.62-1.43 37-1.2 37.5-1.2L37.5-1.2Q38.7-1.2 40-1.93 41.3-2.65 42.55-3.8 43.8-4.95 44.75-6.23 45.7-7.5 46.2-8.55L46.2-8.55 47.4-7.65Q46.45-5.5 44.65-3.43 42.85-1.35 40.65-0.03 38.45 1.3 36.2 1.3ZM49.1 1.5L49.1 1.5Q46.9 1.5 45.8 0.2 44.7-1.1 44.7-2.95L44.7-2.95Q44.7-4.1 45.1-5.85 45.5-7.6 46.22-9.53 46.95-11.45 47.9-13.15 48.85-14.85 49.95-15.93 51.05-17 52.15-17L52.15-17Q52.75-17 53.2-16.65 53.65-16.3 53.65-15.55L53.65-15.55Q53.65-14.9 52.87-13.6 52.1-12.3 51.07-10.6 50.05-8.9 49.27-7.08 48.5-5.25 48.5-3.6L48.5-3.6Q48.5-2 49.07-1.48 49.65-0.95 50.75-0.95L50.75-0.95Q52.45-0.95 54.45-2.65 56.45-4.35 58.6-8.6L58.6-8.6 59.35-7.8Q57.6-3.4 54.9-0.95 52.2 1.5 49.1 1.5ZM55-21.05L55-21.05Q54.05-21.05 53.27-21.53 52.5-22 52.5-23L52.5-23Q52.5-24.2 53.8-25.05 55.1-25.9 56.5-25.9L56.5-25.9Q57.4-25.9 58.02-25.5 58.65-25.1 58.65-24.05L58.65-24.05Q58.65-23 57.5-22.03 56.35-21.05 55-21.05ZM62.94 2.8L62.94 2.8Q60.34 2.8 58.67 1.18 56.99-0.45 56.99-3.8L56.99-3.8Q56.99-6.25 57.94-8.6 58.89-10.95 60.49-12.83 62.09-14.7 64.07-15.8 66.04-16.9 68.09-16.9L68.09-16.9Q70.19-16.9 71.12-15.85 72.04-14.8 72.04-13.4L72.04-13.4Q72.04-12 71.37-10.68 70.69-9.35 69.54-9.35L69.54-9.35Q68.59-9.35 67.99-10.3L67.99-10.3Q68.49-10.65 69.04-11.6 69.59-12.55 69.59-14.05L69.59-14.05Q69.59-14.45 69.39-14.68 69.19-14.9 68.64-14.9L68.64-14.9Q67.39-14.9 66.02-13.78 64.64-12.65 63.47-10.88 62.29-9.1 61.57-7.13 60.84-5.15 60.84-3.5L60.84-3.5Q60.84-2.1 61.57-0.93 62.29 0.25 64.39 0.25L64.39 0.25Q66.29 0.25 68.34-0.85 70.39-1.95 72.19-3.93 73.99-5.9 75.09-8.65L75.09-8.65 76.09-7.75Q74.89-4.7 72.77-2.33 70.64 0.05 68.07 1.43 65.49 2.8 62.94 2.8ZM79.74 2.2L79.74 2.2Q76.54 2.2 74.82 0.48 73.09-1.25 73.09-3.85L73.09-3.85Q73.09-6.05 74.22-8.53 75.34-11 77.24-13.18 79.14-15.35 81.44-16.7 83.74-18.05 86.04-18.05L86.04-18.05Q87.34-18.05 88.52-17.38 89.69-16.7 89.69-14.7L89.69-14.7Q89.69-12.8 88.59-11.15 87.49-9.5 85.64-8.2 83.79-6.9 81.57-6.08 79.34-5.25 77.09-5L77.09-5Q77.04-4.8 77.02-4.58 76.99-4.35 76.99-3.85L76.99-3.85Q76.99-3.6 77.07-2.98 77.14-2.35 77.49-1.65 77.84-0.95 78.64-0.45 79.44 0.05 80.84 0.05L80.84 0.05Q82.94 0.05 85.07-1.13 87.19-2.3 89.07-4.25 90.94-6.2 92.19-8.6L92.19-8.6 93.19-7.8Q91.84-4.8 89.72-2.55 87.59-0.3 85.02 0.95 82.44 2.2 79.74 2.2ZM77.64-6.85L77.64-6.85Q78.94-7 80.54-7.75 82.14-8.5 83.62-9.65 85.09-10.8 86.04-12.18 86.99-13.55 86.99-14.95L86.99-14.95Q86.99-15.5 86.79-15.7 86.59-15.9 86.14-15.9L86.14-15.9Q84.99-15.9 83.74-15.08 82.49-14.25 81.29-12.93 80.09-11.6 79.14-10 78.19-8.4 77.64-6.85ZM103.29 4.35L103.29 4.35Q102.79 4.35 101.99 4.2 101.19 4.05 100.36 3.63 99.54 3.2 98.99 2.3 98.44 1.4 98.44-0.1L98.44-0.1Q98.44-1.35 98.94-3.38 99.44-5.4 100.64-9.3L100.64-9.3Q101.54-12.25 102.41-15.13 103.29-18 103.86-21.1 104.44-24.2 104.44-27.7L104.44-27.7Q104.44-29.75 104.19-31.15 103.94-32.55 103.26-33.27 102.59-34 101.39-34L101.39-34Q100.19-34 99.29-33.35 98.39-32.7 97.79-31.63 97.19-30.55 96.89-29.25 96.59-27.95 96.59-26.65L96.59-26.65Q96.59-24.45 97.34-23L97.34-23Q94.89-23 93.79-24.15 92.69-25.3 92.69-27L92.69-27Q92.69-28.5 93.44-30.1 94.19-31.7 95.51-33.02 96.84-34.35 98.59-35.18 100.34-36 102.34-36L102.34-36Q105.74-36 107.51-33.5 109.29-31 109.29-26.4L109.29-26.4Q109.29-22.95 108.36-19.23 107.44-15.5 106.04-11.1L106.04-11.1Q105.54-9.5 104.86-7.58 104.19-5.65 103.66-3.63 103.14-1.6 103.14 0.4L103.14 0.4Q103.14 1.35 103.36 1.73 103.59 2.1 104.24 2.1L104.24 2.1Q105.59 2.1 107.11 0.95 108.64-0.2 110.19-2.15 111.74-4.1 113.16-6.5 114.59-8.9 115.79-11.43 116.99-13.95 117.79-16.23 118.59-18.5 118.84-20.2L118.84-20.2Q120.74-20.2 121.79-19.15 122.84-18.1 122.84-17.15L122.84-17.15Q122.84-16.65 122.41-15.45 121.99-14.25 120.99-11.9L120.99-11.9Q120.19-10 119.34-7.88 118.49-5.75 117.91-3.68 117.34-1.6 117.34 0.2L117.34 0.2Q117.34 1.2 117.61 1.65 117.89 2.1 118.64 2.1L118.64 2.1Q120.04 2.1 121.86 0.73 123.69-0.65 125.64-3.03 127.59-5.4 129.44-8.38 131.29-11.35 132.79-14.55 134.29-17.75 135.16-20.85 136.04-23.95 136.04-26.5L136.04-26.5Q136.04-29.25 135.06-30.4 134.09-31.55 132.64-32.05L132.64-32.05Q133.54-33.5 134.56-34.18 135.59-34.85 136.39-34.85L136.39-34.85Q137.54-34.85 138.76-33.38 139.99-31.9 139.99-28.75L139.99-28.75Q139.99-26.1 138.96-22.65 137.94-19.2 136.16-15.48 134.39-11.75 132.11-8.22 129.84-4.7 127.26-1.85 124.69 1 122.09 2.68 119.49 4.35 117.14 4.35L117.14 4.35Q115.84 4.35 114.81 3.83 113.79 3.3 113.21 2.33 112.64 1.35 112.64 0.05L112.64 0.05Q112.64-0.55 112.79-1.2 112.94-1.85 113.14-2.5L113.14-2.5Q110.69 0.6 108.21 2.48 105.74 4.35 103.29 4.35ZM141.59 1.5L141.59 1.5Q139.39 1.5 138.28 0.2 137.19-1.1 137.19-2.95L137.19-2.95Q137.19-4.1 137.59-5.85 137.99-7.6 138.71-9.53 139.44-11.45 140.39-13.15 141.34-14.85 142.44-15.93 143.53-17 144.64-17L144.64-17Q145.24-17 145.69-16.65 146.14-16.3 146.14-15.55L146.14-15.55Q146.14-14.9 145.36-13.6 144.59-12.3 143.56-10.6 142.53-8.9 141.76-7.08 140.99-5.25 140.99-3.6L140.99-3.6Q140.99-2 141.56-1.48 142.14-0.95 143.24-0.95L143.24-0.95Q144.94-0.95 146.94-2.65 148.94-4.35 151.09-8.6L151.09-8.6 151.84-7.8Q150.09-3.4 147.39-0.95 144.69 1.5 141.59 1.5ZM147.49-21.05L147.49-21.05Q146.53-21.05 145.76-21.53 144.99-22 144.99-23L144.99-23Q144.99-24.2 146.28-25.05 147.59-25.9 148.99-25.9L148.99-25.9Q149.89-25.9 150.51-25.5 151.14-25.1 151.14-24.05L151.14-24.05Q151.14-23 149.99-22.03 148.84-21.05 147.49-21.05ZM155.63 2.55L155.63 2.55Q153.13 2.55 151.61 1.53 150.08 0.5 149.43-1.07 148.78-2.65 148.78-4.3L148.78-4.3Q148.78-5.75 149.18-6.55 149.58-7.35 150.18-7.73 150.78-8.1 151.31-8.3 151.83-8.5 152.08-8.75L152.08-8.75Q153.33-10.05 154.66-11.78 155.98-13.5 156.93-15.6L156.93-15.6 156.93-16.1Q156.93-18.1 157.61-18.93 158.28-19.75 159.18-19.75L159.18-19.75Q159.78-19.75 160.06-19.45 160.33-19.15 160.38-18.75L160.38-18.75Q160.38-18.45 160.26-18.05 160.13-17.65 160.13-16.95L160.13-16.95Q160.13-15.45 160.86-13.53 161.58-11.6 162.31-9.45 163.03-7.3 163.03-5.05L163.03-5.05Q163.03-4.45 162.98-3.95 162.93-3.45 162.83-3L162.83-3Q164.38-3.4 165.88-4.73 167.38-6.05 168.73-8.65L168.73-8.65 169.33-8.2Q168.38-5.35 166.58-3.63 164.78-1.9 162.38-1.5L162.38-1.5Q161.58 0.55 159.76 1.55 157.93 2.55 155.63 2.55ZM155.28 0.35L155.28 0.35Q156.28 0.35 157.13-0.15 157.98-0.65 158.48-1.6L158.48-1.6Q156.43-2.05 154.78-3.2 153.13-4.35 152.23-5.55L152.23-5.55Q151.53-5.4 151.53-4.2L151.53-4.2Q151.53-2.55 152.48-1.1 153.43 0.35 155.28 0.35ZM158.88-3.1L158.88-3.1Q158.98-3.45 159.01-3.93 159.03-4.4 159.03-4.65L159.03-4.65Q158.98-6.9 158.43-9.1 157.88-11.3 157.33-13.6L157.33-13.6Q156.43-12.05 155.23-10.25 154.03-8.45 152.98-7.35L152.98-7.35Q153.78-6 155.33-4.8 156.88-3.6 158.88-3.1ZM173.13 2.2L173.13 2.2Q169.93 2.2 168.21 0.48 166.48-1.25 166.48-3.85L166.48-3.85Q166.48-6.05 167.61-8.53 168.73-11 170.63-13.18 172.53-15.35 174.83-16.7 177.13-18.05 179.43-18.05L179.43-18.05Q180.73-18.05 181.91-17.38 183.08-16.7 183.08-14.7L183.08-14.7Q183.08-12.8 181.98-11.15 180.88-9.5 179.03-8.2 177.18-6.9 174.96-6.08 172.73-5.25 170.48-5L170.48-5Q170.43-4.8 170.41-4.58 170.38-4.35 170.38-3.85L170.38-3.85Q170.38-3.6 170.46-2.98 170.53-2.35 170.88-1.65 171.23-0.95 172.03-0.45 172.83 0.05 174.23 0.05L174.23 0.05Q176.33 0.05 178.46-1.13 180.58-2.3 182.46-4.25 184.33-6.2 185.58-8.6L185.58-8.6 186.58-7.8Q185.23-4.8 183.11-2.55 180.98-0.3 178.41 0.95 175.83 2.2 173.13 2.2ZM171.03-6.85L171.03-6.85Q172.33-7 173.93-7.75 175.53-8.5 177.01-9.65 178.48-10.8 179.43-12.18 180.38-13.55 180.38-14.95L180.38-14.95Q180.38-15.5 180.18-15.7 179.98-15.9 179.53-15.9L179.53-15.9Q178.38-15.9 177.13-15.08 175.88-14.25 174.68-12.93 173.48-11.6 172.53-10 171.58-8.4 171.03-6.85Z" opacity="1" transform="matrix(1,0,0,1,0,0)" fill="#e363aa" class="undefined-text-0" data-fill-palette-color="primary" id="text-0"></path></svg></g></svg></g></svg></g></svg></g><g><svg viewBox="0 0 225.96684356949703 225.96684356949703" height="225.96684356949703" width="225.96684356949703"><g><svg xmlns="http://www.w3.org/2000/svg" xmlns:xlink="http://www.w3.org/1999/xlink" version="1.1" x="0" y="0" viewBox="0 0 512 512" enable-background="new 0 0 512 512" xml:space="preserve" height="225.96684356949703" width="225.96684356949703" class="icon-icon-0" data-fill-palette-color="accent" id="icon-0"><path d="M512 480v32H0V0h32v480H512zM480 320V192 32l-96 192-64-96-64 160-64-96-64 128-64-96v96 128h416V320z" fill="#e363aa" data-fill-palette-color="accent"></path></svg></g></svg></g></svg></g><defs></defs></svg><rect width="395.52" height="139.24213671403697" fill="none" stroke="none" visibility="hidden"></rect></g></svg></g></svg>