<svg xmlns="http://www.w3.org/2000/svg" version="1.1" xmlns:xlink="http://www.w3.org/1999/xlink" xmlns:svgjs="http://svgjs.dev/svgjs" width="1000" height="1000" viewBox="0 0 1000 1000"><rect width="1000" height="1000" fill="#000000"></rect><g transform="matrix(0.7,0,0,0.7,149.57575757575756,371.20804609955104)"><svg viewBox="0 0 396 146" data-background-color="#ffffff" preserveAspectRatio="xMidYMid meet" height="368" width="1000" xmlns="http://www.w3.org/2000/svg" xmlns:xlink="http://www.w3.org/1999/xlink"><g id="tight-bounds" transform="matrix(1,0,0,1,0.2400000000000091,-0.00456028934179642)"><svg viewBox="0 0 395.52 146.0091205786836" height="146.0091205786836" width="395.52"><g><svg viewBox="0 0 662.1332360885016 244.43135999999998" height="146.0091205786836" width="395.52"><g transform="matrix(1,0,0,1,266.6132360885016,75.23530908448632)"><svg viewBox="0 0 395.52 93.96074183102736" height="93.96074183102736" width="395.52"><g id="textblocktransform"><svg viewBox="0 0 395.52 93.96074183102736" height="93.96074183102736" width="395.52" id="textblock"><g><svg viewBox="0 0 395.52 93.96074183102736" height="93.96074183102736" width="395.52"><g transform="matrix(1,0,0,1,0,0)"><svg width="395.52" viewBox="1.7 -36 169.83 40.35" height="93.96074183102736" data-palette-color="#e363aa"><path d="M5.85 4.35L5.85 4.35Q4.35 4.35 3.03 3.55 1.7 2.75 1.7 1.5L1.7 1.5Q1.7 0.85 1.93 0.1 2.15-0.65 2.35-1.3L2.35-1.3Q3.9-6.05 5.25-10.18 6.6-14.3 7.98-18.13 9.35-21.95 10.88-25.8 12.4-29.65 14.3-33.85L14.3-33.85Q12.4-33.45 11.05-32.83 9.7-32.2 8.85-31.73 8-31.25 7.6-31.25L7.6-31.25Q7.35-31.25 6.88-31.6 6.4-31.95 6.05-32.4 5.7-32.85 5.7-33.2L5.7-33.2Q7.1-33.8 8.97-34.45 10.85-35.1 13.05-35.55 15.25-36 17.45-36L17.45-36Q19.8-36 22.25-35.38 24.7-34.75 26.78-33.52 28.85-32.3 30.13-30.48 31.4-28.65 31.4-26.2L31.4-26.2Q31.4-23.55 30.2-21.65 29-19.75 27.03-18.45 25.05-17.15 22.75-16.35 20.45-15.55 18.18-15.15 15.9-14.75 14.1-14.6 12.3-14.45 11.4-14.45L11.4-14.45 11.1-14.45Q9.7-9.5 8.35-4.58 7 0.35 5.85 4.35ZM11.55-16L11.55-16Q14.35-16.2 17.15-16.95 19.95-17.7 22.23-19.03 24.5-20.35 25.88-22.35 27.25-24.35 27.25-27L27.25-27Q27.25-29.5 25.93-31.05 24.6-32.6 22.53-33.4 20.45-34.2 18.15-34.25L18.15-34.25Q16.35-30.75 14.7-25.98 13.05-21.2 11.55-16ZM36.2 1.3L36.2 1.3Q34.35 1.3 33.2 0.33 32.05-0.65 32.05-2.3L32.05-2.3Q32.05-3.7 32.75-5.3 33.45-6.9 34.17-8.45 34.9-10 34.9-11.2L34.9-11.2Q34.9-12.35 34.15-13.13 33.4-13.9 32.4-14.4L32.4-14.4Q31.3-11.65 29.92-9.08 28.55-6.5 27.7-5.05L27.7-5.05 26.95-6.5Q27.65-7.8 28.8-10.2 29.95-12.6 31-15.55L31-15.55Q30.5-16.05 30.5-16.9L30.5-16.9Q30.5-18.2 31.3-19.35 32.1-20.5 32.85-20.5L32.85-20.5Q33.45-20.5 33.72-19.83 34-19.15 34-18.9L34-18.9Q34-18.65 33.77-18 33.55-17.35 33.45-17.05L33.45-17.05Q33.5-16.5 34.32-15.98 35.15-15.45 36.2-14.75 37.25-14.05 38.05-13 38.85-11.95 38.85-10.35L38.85-10.35Q38.85-8.9 38.2-7.4 37.55-5.9 36.9-4.6 36.25-3.3 36.25-2.35L36.25-2.35Q36.25-1.65 36.62-1.43 37-1.2 37.5-1.2L37.5-1.2Q38.7-1.2 40-1.93 41.3-2.65 42.55-3.8 43.8-4.95 44.75-6.23 45.7-7.5 46.2-8.55L46.2-8.55 47.4-7.65Q46.45-5.5 44.65-3.43 42.85-1.35 40.65-0.03 38.45 1.3 36.2 1.3ZM49.1 1.5L49.1 1.5Q46.9 1.5 45.8 0.2 44.7-1.1 44.7-2.95L44.7-2.95Q44.7-4.1 45.1-5.85 45.5-7.6 46.22-9.53 46.95-11.45 47.9-13.15 48.85-14.85 49.95-15.93 51.05-17 52.15-17L52.15-17Q52.75-17 53.2-16.65 53.65-16.3 53.65-15.55L53.65-15.55Q53.65-14.9 52.87-13.6 52.1-12.3 51.07-10.6 50.05-8.9 49.27-7.08 48.5-5.25 48.5-3.6L48.5-3.6Q48.5-2 49.07-1.48 49.65-0.95 50.75-0.95L50.75-0.95Q52.45-0.95 54.45-2.65 56.45-4.35 58.6-8.6L58.6-8.6 59.35-7.8Q57.6-3.4 54.9-0.95 52.2 1.5 49.1 1.5ZM55-21.05L55-21.05Q54.05-21.05 53.27-21.53 52.5-22 52.5-23L52.5-23Q52.5-24.2 53.8-25.05 55.1-25.9 56.5-25.9L56.5-25.9Q57.4-25.9 58.02-25.5 58.65-25.1 58.65-24.05L58.65-24.05Q58.65-23 57.5-22.03 56.35-21.05 55-21.05ZM62.94 2.8L62.94 2.8Q60.34 2.8 58.67 1.18 56.99-0.45 56.99-3.8L56.99-3.8Q56.99-6.25 57.94-8.6 58.89-10.95 60.49-12.83 62.09-14.7 64.07-15.8 66.04-16.9 68.09-16.9L68.09-16.9Q70.19-16.9 71.12-15.85 72.04-14.8 72.04-13.4L72.04-13.4Q72.04-12 71.37-10.68 70.69-9.35 69.54-9.35L69.54-9.35Q68.59-9.35 67.99-10.3L67.99-10.3Q68.49-10.65 69.04-11.6 69.59-12.55 69.59-14.05L69.59-14.05Q69.59-14.45 69.39-14.68 69.19-14.9 68.64-14.9L68.64-14.9Q67.39-14.9 66.02-13.78 64.64-12.65 63.47-10.88 62.29-9.1 61.57-7.13 60.84-5.15 60.84-3.5L60.84-3.5Q60.84-2.1 61.57-0.93 62.29 0.25 64.39 0.25L64.39 0.25Q66.29 0.25 68.34-0.85 70.39-1.95 72.19-3.93 73.99-5.9 75.09-8.65L75.09-8.65 76.09-7.75Q74.89-4.7 72.77-2.33 70.64 0.05 68.07 1.43 65.49 2.8 62.94 2.8ZM79.74 2.2L79.74 2.2Q76.54 2.2 74.82 0.48 73.09-1.25 73.09-3.85L73.09-3.85Q73.09-6.05 74.22-8.53 75.34-11 77.24-13.18 79.14-15.35 81.44-16.7 83.74-18.05 86.04-18.05L86.04-18.05Q87.34-18.05 88.52-17.38 89.69-16.7 89.69-14.7L89.69-14.7Q89.69-12.8 88.59-11.15 87.49-9.5 85.64-8.2 83.79-6.9 81.57-6.08 79.34-5.25 77.09-5L77.09-5Q77.04-4.8 77.02-4.58 76.99-4.35 76.99-3.85L76.99-3.85Q76.99-3.6 77.07-2.98 77.14-2.35 77.49-1.65 77.84-0.95 78.64-0.45 79.44 0.05 80.84 0.05L80.84 0.05Q82.94 0.05 85.07-1.13 87.19-2.3 89.07-4.25 90.94-6.2 92.19-8.6L92.19-8.6 93.19-7.8Q91.84-4.8 89.72-2.55 87.59-0.3 85.02 0.95 82.44 2.2 79.74 2.2ZM77.64-6.85L77.64-6.85Q78.94-7 80.54-7.75 82.14-8.5 83.62-9.65 85.09-10.8 86.04-12.18 86.99-13.55 86.99-14.95L86.99-14.95Q86.99-15.5 86.79-15.7 86.59-15.9 86.14-15.9L86.14-15.9Q84.99-15.9 83.74-15.08 82.49-14.25 81.29-12.93 80.09-11.6 79.14-10 78.19-8.4 77.64-6.85ZM105.54 1.9L105.54 1.9Q103.84 1.9 103.26 0.43 102.69-1.05 102.59-3.1L102.59-3.1Q102.64-3.7 102.66-4.75 102.69-5.8 102.74-6.5L102.74-6.5Q101.69-4.6 100.44-2.75 99.19-0.9 97.79 0.3 96.39 1.5 94.84 1.5L94.84 1.5Q93.14 1.5 92.04-0.03 90.94-1.55 90.94-3.7L90.94-3.7Q90.94-5.15 91.41-7.05 91.89-8.95 92.61-10.75 93.34-12.55 94.11-13.75 94.89-14.95 95.49-14.95L95.49-14.95Q95.84-14.95 96.71-14.55 97.59-14.15 97.79-13.5L97.79-13.5Q97.24-12.7 96.46-11.05 95.69-9.4 95.11-7.53 94.54-5.65 94.54-4.1L94.54-4.1Q94.54-3.8 94.61-3.08 94.69-2.35 95.04-1.75 95.39-1.15 96.09-1.15L96.09-1.15Q97.19-1.15 98.41-2.5 99.64-3.85 100.89-5.9 102.14-7.95 103.24-10.1L103.24-10.1Q103.69-12.25 103.99-13.2 104.29-14.15 104.61-14.4 104.94-14.65 105.39-14.65L105.39-14.65Q106.34-14.65 106.86-14.28 107.39-13.9 107.39-13.2L107.39-13.2Q107.39-13.15 107.29-12.78 107.19-12.4 107.14-12.3L107.14-12.3Q106.84-11.25 106.59-9.78 106.34-8.3 106.19-6.63 106.04-4.95 106.04-3.25L106.04-3.25Q106.04-2.05 106.19-1.38 106.34-0.7 106.94-0.7L106.94-0.7Q107.64-0.7 108.56-1.55 109.49-2.4 110.51-3.8 111.54-5.2 112.51-6.88 113.49-8.55 114.29-10.25L114.29-10.25Q114.29-12.85 114.66-14.2 115.04-15.55 115.66-16.07 116.29-16.6 117.04-16.6L117.04-16.6Q118.29-16.6 118.76-15.8 119.24-15 119.24-14.45L119.24-14.45Q119.24-13.95 118.99-13.53 118.74-13.1 118.59-12.75L118.59-12.75Q118.24-12 117.91-10.95 117.59-9.9 117.59-8.3L117.59-8.3Q117.59-7.45 117.76-6.58 117.94-5.7 118.41-5.15 118.89-4.6 119.79-4.6L119.79-4.6Q120.69-4.6 121.61-5.4 122.54-6.2 123.64-8.4L123.64-8.4 124.59-7.65Q123.49-5.05 122.09-4.08 120.69-3.1 119.39-3.1L119.39-3.1Q117.74-3.1 116.59-4.3 115.44-5.5 114.79-7.25L114.79-7.25Q113.54-5.1 112.01-2.98 110.49-0.85 108.84 0.53 107.19 1.9 105.54 1.9ZM126.54 1.5L126.54 1.5Q124.34 1.5 123.24 0.2 122.14-1.1 122.14-2.95L122.14-2.95Q122.14-4.1 122.54-5.85 122.94-7.6 123.66-9.53 124.39-11.45 125.34-13.15 126.29-14.85 127.39-15.93 128.49-17 129.59-17L129.59-17Q130.19-17 130.64-16.65 131.09-16.3 131.09-15.55L131.09-15.55Q131.09-14.9 130.31-13.6 129.54-12.3 128.51-10.6 127.49-8.9 126.71-7.08 125.94-5.25 125.94-3.6L125.94-3.6Q125.94-2 126.51-1.48 127.09-0.95 128.19-0.95L128.19-0.95Q129.89-0.95 131.89-2.65 133.89-4.35 136.04-8.6L136.04-8.6 136.79-7.8Q135.04-3.4 132.34-0.95 129.64 1.5 126.54 1.5ZM132.44-21.05L132.44-21.05Q131.49-21.05 130.71-21.53 129.94-22 129.94-23L129.94-23Q129.94-24.2 131.24-25.05 132.54-25.9 133.94-25.9L133.94-25.9Q134.84-25.9 135.46-25.5 136.09-25.1 136.09-24.05L136.09-24.05Q136.09-23 134.94-22.03 133.79-21.05 132.44-21.05ZM140.58 2.55L140.58 2.55Q138.08 2.55 136.56 1.53 135.03 0.5 134.38-1.07 133.73-2.65 133.73-4.3L133.73-4.3Q133.73-5.75 134.13-6.55 134.53-7.35 135.13-7.73 135.73-8.1 136.26-8.3 136.78-8.5 137.03-8.75L137.03-8.75Q138.28-10.05 139.61-11.78 140.93-13.5 141.88-15.6L141.88-15.6 141.88-16.1Q141.88-18.1 142.56-18.93 143.23-19.75 144.13-19.75L144.13-19.75Q144.73-19.75 145.01-19.45 145.28-19.15 145.33-18.75L145.33-18.75Q145.33-18.45 145.21-18.05 145.08-17.65 145.08-16.95L145.08-16.95Q145.08-15.45 145.81-13.53 146.53-11.6 147.26-9.45 147.98-7.3 147.98-5.05L147.98-5.05Q147.98-4.45 147.93-3.95 147.88-3.45 147.78-3L147.78-3Q149.33-3.4 150.83-4.73 152.33-6.05 153.68-8.65L153.68-8.65 154.28-8.2Q153.33-5.35 151.53-3.63 149.73-1.9 147.33-1.5L147.33-1.5Q146.53 0.55 144.71 1.55 142.88 2.55 140.58 2.55ZM140.23 0.35L140.23 0.35Q141.23 0.35 142.08-0.15 142.93-0.65 143.43-1.6L143.43-1.6Q141.38-2.05 139.73-3.2 138.08-4.35 137.18-5.55L137.18-5.55Q136.48-5.4 136.48-4.2L136.48-4.2Q136.48-2.55 137.43-1.1 138.38 0.35 140.23 0.35ZM143.83-3.1L143.83-3.1Q143.93-3.45 143.96-3.93 143.98-4.4 143.98-4.65L143.98-4.65Q143.93-6.9 143.38-9.1 142.83-11.3 142.28-13.6L142.28-13.6Q141.38-12.05 140.18-10.25 138.98-8.45 137.93-7.35L137.93-7.35Q138.73-6 140.28-4.8 141.83-3.6 143.83-3.1ZM158.08 2.2L158.08 2.2Q154.88 2.2 153.16 0.48 151.43-1.25 151.43-3.85L151.43-3.85Q151.43-6.05 152.56-8.53 153.68-11 155.58-13.18 157.48-15.35 159.78-16.7 162.08-18.05 164.38-18.05L164.38-18.05Q165.68-18.05 166.86-17.38 168.03-16.7 168.03-14.7L168.03-14.7Q168.03-12.8 166.93-11.15 165.83-9.5 163.98-8.2 162.13-6.9 159.91-6.08 157.68-5.25 155.43-5L155.43-5Q155.38-4.8 155.36-4.58 155.33-4.35 155.33-3.85L155.33-3.85Q155.33-3.6 155.41-2.98 155.48-2.35 155.83-1.65 156.18-0.95 156.98-0.45 157.78 0.05 159.18 0.05L159.18 0.05Q161.28 0.05 163.41-1.13 165.53-2.3 167.41-4.25 169.28-6.2 170.53-8.6L170.53-8.6 171.53-7.8Q170.18-4.8 168.06-2.55 165.93-0.3 163.36 0.95 160.78 2.2 158.08 2.2ZM155.98-6.85L155.98-6.85Q157.28-7 158.88-7.75 160.48-8.5 161.96-9.65 163.43-10.8 164.38-12.18 165.33-13.55 165.33-14.95L165.33-14.95Q165.33-15.5 165.13-15.7 164.93-15.9 164.48-15.9L164.48-15.9Q163.33-15.9 162.08-15.08 160.83-14.25 159.63-12.93 158.43-11.6 157.48-10 156.53-8.4 155.98-6.85Z" opacity="1" transform="matrix(1,0,0,1,0,0)" fill="#ffffff" class="undefined-text-0" data-fill-palette-color="primary" id="text-0"></path></svg></g></svg></g></svg></g></svg></g><g><svg viewBox="0 0 244.43135999999998 244.43135999999998" height="244.43135999999998" width="244.43135999999998"><g><svg xmlns="http://www.w3.org/2000/svg" xmlns:xlink="http://www.w3.org/1999/xlink" version="1.1" x="0" y="0" viewBox="0 0 512 512" enable-background="new 0 0 512 512" xml:space="preserve" height="244.43135999999998" width="244.43135999999998" class="icon-icon-0" data-fill-palette-color="accent" id="icon-0"><path d="M512 480v32H0V0h32v480H512zM480 320V192 32l-96 192-64-96-64 160-64-96-64 128-64-96v96 128h416V320z" fill="#ffffff" data-fill-palette-color="accent"></path></svg></g></svg></g></svg></g><defs></defs></svg><rect width="395.52" height="146.0091205786836" fill="none" stroke="none" visibility="hidden"></rect></g></svg></g></svg>